<?xml version="1.0" encoding="utf-8"?>
<!-- Generator: Adobe Illustrator 16.0.0, SVG Export Plug-In . SVG Version: 6.00 Build 0)  -->
<!DOCTYPE svg PUBLIC "-//W3C//DTD SVG 1.1//EN" "http://www.w3.org/Graphics/SVG/1.1/DTD/svg11.dtd">
<svg version="1.1" id="Layer_1" xmlns="http://www.w3.org/2000/svg" xmlns:xlink="http://www.w3.org/1999/xlink" x="0px" y="0px"
	 width="500px" height="400px" viewBox="0 0 500 400" enable-background="new 0 0 500 400" xml:space="preserve">
<path fill-rule="evenodd" clip-rule="evenodd" fill="#3AAAC8" d="M27.483,243.612c-2.348-0.28-3.785-1.526-3.605-3.876
	c0.203-2.659,1.924-4.227,4.563-4.243c2.495-0.016,4.161,1.412,3.818,4.038C31.917,242.141,30.047,243.422,27.483,243.612z"/>
<path fill-rule="evenodd" clip-rule="evenodd" fill="#3AAAC8" d="M307.026,393.006c0.591-2.776,2.065-4.624,5.139-4.259
	c2.179,0.259,3.727,1.633,4.022,3.851c0.411,3.088-1.725,4.417-4.196,5.376C310.888,395.767,309.212,394.131,307.026,393.006z"/>
<path fill-rule="evenodd" clip-rule="evenodd" fill="#3AAAC8" d="M307.026,393.006c1.654-1.228,3.408-2.188,5.177-0.348
	c1.688,1.755,0.843,3.58-0.212,5.315C308.946,397.707,307.187,396.156,307.026,393.006z"/>
<path fill-rule="evenodd" clip-rule="evenodd" fill="#3AAAC8" d="M394.645,219.874c-0.008,1.442-0.589,2.158-1.711,2.342
	c-1.146,0.188-1.968-0.331-2.151-1.478c-0.221-1.379,0.519-2.269,1.869-2.357C393.765,218.307,394.393,219.101,394.645,219.874z"/>
<path fill-rule="evenodd" clip-rule="evenodd" fill="#3AAAC8" d="M301.193,159.245c-0.055,1.134-0.592,1.899-1.752,1.981
	c-1.102,0.078-1.947-0.422-2.063-1.603c-0.135-1.376,0.605-2.24,1.962-2.262C300.46,157.345,301.105,158.095,301.193,159.245z"/>
<path fill-rule="evenodd" clip-rule="evenodd" fill="#3AAAC8" d="M162.593,53.795c-0.175,1.127-0.864,1.807-1.994,1.811
	c-1.186,0.003-1.845-0.774-1.798-1.92c0.046-1.142,0.776-1.835,1.939-1.827C161.94,51.867,162.5,52.623,162.593,53.795z"/>
<path fill-rule="evenodd" clip-rule="evenodd" fill="#3AAAC8" d="M264.138,202.705c-0.132,1.112-0.69,1.898-1.85,1.923
	c-1.128,0.023-1.891-0.632-1.896-1.795c-0.004-1.12,0.644-1.874,1.807-1.909C263.354,200.891,264.003,201.555,264.138,202.705z"/>
<path fill-rule="evenodd" clip-rule="evenodd" fill="#3AAAC8" d="M220.104,384.514c-0.017,1.118-0.45,1.961-1.643,2.102
	c-1.148,0.135-1.942-0.433-2.082-1.591c-0.138-1.144,0.465-1.926,1.612-2.089C219.147,382.771,219.873,383.351,220.104,384.514z"/>
<path fill-rule="evenodd" clip-rule="evenodd" fill="#3AAAC8" d="M148.196,215.54c-0.059,0.706-0.397,1.251-1.109,1.33
	c-0.945,0.104-1.505-0.435-1.54-1.367c-0.026-0.706,0.4-1.243,1.103-1.327C147.599,214.063,148.103,214.606,148.196,215.54z"/>
<path fill-rule="evenodd" clip-rule="evenodd" fill="#3AAAC8" d="M495.96,14.02c-0.732,1.3-1.569,2.972-3.288,1.813
	c-1.655-1.115-0.479-2.593,0.329-3.826C494.925,11.3,495.146,13.095,495.96,14.02z"/>
<path fill-rule="evenodd" clip-rule="evenodd" fill="#3AAAC8" d="M399.352,22.203c0.014,0.896-0.343,1.596-1.258,1.732
	c-0.934,0.139-1.522-0.429-1.657-1.325c-0.139-0.917,0.344-1.556,1.24-1.704C398.624,20.748,399.136,21.326,399.352,22.203z"/>
<path fill-rule="evenodd" clip-rule="evenodd" fill="#3AAAC8" d="M447.147,296.775c-0.754,0.023-1.283-0.334-1.353-1.074
	c-0.088-0.941,0.394-1.596,1.379-1.585c0.751,0.009,1.171,0.567,1.146,1.307C448.297,296.139,447.886,296.625,447.147,296.775z"/>
<path fill-rule="evenodd" clip-rule="evenodd" fill="#3AAAC8" d="M89.538,130.546c0.046,0.936-0.424,1.602-1.273,1.797
	c-0.916,0.211-1.58-0.345-1.739-1.235c-0.164-0.916,0.339-1.584,1.249-1.757C88.688,129.176,89.31,129.616,89.538,130.546z"/>
<path fill-rule="evenodd" clip-rule="evenodd" fill="#3AAAC8" d="M397.45,372.719c-0.225-0.215-0.588-0.405-0.603-0.618
	c-0.016-0.237,0.241-0.652,0.46-0.716c0.6-0.176,0.895,0.226,0.784,0.771C398.046,372.385,397.66,372.545,397.45,372.719z"/>
<path fill-rule="evenodd" clip-rule="evenodd" fill="#3AAAC8" d="M358.566,253.048c-0.206-0.195-0.411-0.391-0.616-0.586
	c0.239-0.155,0.467-0.336,0.725-0.447c0.058-0.024,0.335,0.24,0.314,0.293C358.886,252.569,358.715,252.804,358.566,253.048z"/>
<path fill-rule="evenodd" clip-rule="evenodd" fill="#3AAAC8" d="M108.387,355.979c0.23,0.165,0.458,0.331,0.686,0.496
	c-0.212,0.187-0.409,0.396-0.646,0.54c-0.055,0.033-0.369-0.192-0.355-0.248C108.137,356.496,108.274,356.241,108.387,355.979z"/>
<path fill-rule="evenodd" clip-rule="evenodd" fill="#3AAAC8" d="M275.268,266.043c0.229,0.135,0.606,0.237,0.645,0.413
	c0.041,0.193-0.232,0.452-0.368,0.683c-0.229-0.138-0.591-0.237-0.646-0.426C274.848,266.54,275.131,266.271,275.268,266.043z"/>
<path fill-rule="evenodd" clip-rule="evenodd" fill="#3AAAC8" d="M305.198,106.209c0.21,0.13,0.427,0.252,0.618,0.405
	c0.018,0.014-0.129,0.23-0.198,0.354c-0.212-0.131-0.429-0.255-0.623-0.408C304.98,106.548,305.127,106.332,305.198,106.209z"/>
<path fill-rule="evenodd" clip-rule="evenodd" fill="#3AAAC8" d="M164.948,144.951c-0.168,0.191-0.33,0.39-0.518,0.557
	c-0.018,0.017-0.308-0.173-0.299-0.246c0.031-0.249,0.139-0.489,0.218-0.733C164.549,144.669,164.749,144.81,164.948,144.951z"/>
<path fill-rule="evenodd" clip-rule="evenodd" fill="#3AAAC8" d="M489.962,147.955c-0.18-0.177-0.354-0.354-0.53-0.533
	c0.236-0.114,0.465-0.257,0.713-0.325c0.068-0.02,0.3,0.245,0.283,0.272C490.298,147.578,490.125,147.761,489.962,147.955z"/>
<path fill-rule="evenodd" clip-rule="evenodd" fill="#3AAAC8" d="M451.466,19.677c-0.264,0.093-0.525,0.183-0.788,0.272
	c-0.042-0.256-0.104-0.513-0.105-0.769c0-0.042,0.342-0.166,0.407-0.111C451.173,19.233,451.309,19.468,451.466,19.677z"/>
<path fill-rule="evenodd" clip-rule="evenodd" fill="#3AAAC8" d="M11.516,206.61c-0.251,0.122-0.501,0.242-0.752,0.361
	c-0.08-0.253-0.173-0.504-0.22-0.763c-0.005-0.028,0.322-0.192,0.399-0.143C11.161,206.205,11.33,206.422,11.516,206.61z"/>
<path fill-rule="evenodd" clip-rule="evenodd" fill="#3AAAC8" d="M452.938,239.148c-0.229,0.118-0.46,0.235-0.689,0.353
	c-0.048-0.267-0.128-0.533-0.124-0.798c0.001-0.083,0.328-0.244,0.339-0.231C452.637,238.684,452.784,238.918,452.938,239.148z"/>
<path fill-rule="evenodd" clip-rule="evenodd" fill="#3AAAC8" d="M213.771,261.293c0.07,0.124,0.141,0.249,0.211,0.374
	c-0.225,0.045-0.45,0.09-0.675,0.136c0.016-0.144-0.017-0.329,0.062-0.418C213.442,261.301,213.632,261.319,213.771,261.293z"/>
<path fill-rule="evenodd" clip-rule="evenodd" fill="#3AAAC8" d="M167.497,291.302c-0.127,0.232-0.23,0.483-0.397,0.68
	c-0.046,0.055-0.401-0.03-0.413-0.09c-0.046-0.244-0.014-0.503-0.011-0.756C166.949,291.19,167.222,291.245,167.497,291.302z"/>
<path fill-rule="evenodd" clip-rule="evenodd" fill="#3AAAC8" d="M359.999,4.052c0.188,0.17,0.385,0.332,0.549,0.523
	c0.017,0.02-0.178,0.309-0.251,0.3c-0.252-0.033-0.494-0.145-0.74-0.226C359.704,4.45,359.851,4.251,359.999,4.052z"/>
<polygon fill-rule="evenodd" clip-rule="evenodd" fill="#3AAAC8" points="270.394,356.162 270.441,355.799 270.728,356.019 "/>
<path fill-rule="evenodd" clip-rule="evenodd" fill="#3AAAC8" d="M71.975,238.839c-0.125,0.234-0.25,0.467-0.374,0.699
	c-0.175-0.187-0.38-0.356-0.509-0.571c-0.044-0.073,0.128-0.383,0.154-0.377C71.494,238.647,71.732,238.749,71.975,238.839z"/>
<path fill-rule="evenodd" clip-rule="evenodd" fill="#3AAAC8" d="M472.469,374.551c0.202-0.161,0.405-0.319,0.607-0.479
	c0.129,0.208,0.278,0.408,0.37,0.632c0.018,0.042-0.24,0.278-0.301,0.254C472.905,374.859,472.692,374.693,472.469,374.551z"/>
<path fill-rule="evenodd" clip-rule="evenodd" fill="#3AAAC8" d="M215.523,31.734c-0.093-0.105-0.254-0.207-0.261-0.318
	c-0.008-0.117,0.131-0.244,0.206-0.367c0.152,0.171,0.304,0.343,0.456,0.515C215.79,31.62,215.657,31.678,215.523,31.734z"/>
<path fill-rule="evenodd" clip-rule="evenodd" fill="#3AAAC8" d="M475.93,387.941c-0.173,0.197-0.339,0.402-0.532,0.576
	c-0.018,0.017-0.318-0.18-0.31-0.256c0.03-0.259,0.142-0.508,0.222-0.761C475.516,387.647,475.723,387.794,475.93,387.941z"/>
<path fill-rule="evenodd" clip-rule="evenodd" fill="#3AAAC8" d="M106.947,52.046c0.195,0.17,0.396,0.333,0.569,0.521
	c0.014,0.015-0.179,0.309-0.256,0.3c-0.254-0.028-0.5-0.137-0.748-0.215C106.656,52.45,106.801,52.248,106.947,52.046z"/>
<path fill-rule="evenodd" clip-rule="evenodd" fill="#3AAAC8" d="M43.897,80.952c-0.17,0.182-0.34,0.363-0.511,0.546
	c-0.113-0.233-0.253-0.459-0.323-0.705c-0.018-0.063,0.245-0.291,0.278-0.271C43.551,80.646,43.732,80.817,43.897,80.952z"/>
<path fill-rule="evenodd" clip-rule="evenodd" fill="#3AAAC8" d="M330.885,354.017c-0.215,0.124-0.431,0.247-0.646,0.37
	c-0.057-0.254-0.144-0.506-0.151-0.76c-0.003-0.076,0.307-0.241,0.322-0.225C330.586,353.591,330.731,353.807,330.885,354.017z"/>
<path fill-rule="evenodd" clip-rule="evenodd" fill="#3AAAC8" d="M218.507,203.203c-0.304-0.307-0.513-0.518-0.722-0.729
	c0.221-0.206,0.438-0.563,0.666-0.572c0.199-0.007,0.57,0.375,0.577,0.594C219.036,202.725,218.698,202.964,218.507,203.203z"/>
<polygon fill-rule="evenodd" clip-rule="evenodd" fill="#3AAAC8" points="74.031,199.272 73.862,199.579 73.688,199.288 "/>
<path fill-rule="evenodd" clip-rule="evenodd" fill="#3AAAC8" d="M158.411,368.59c-0.094-0.238-0.185-0.476-0.277-0.713
	c0.238-0.053,0.476-0.124,0.716-0.138c0.039-0.002,0.171,0.315,0.124,0.374C158.821,368.301,158.604,368.436,158.411,368.59z"/>
<path fill-rule="evenodd" clip-rule="evenodd" fill="#3AAAC8" d="M259.732,82.287c0.14,0.042,0.28,0.083,0.42,0.124
	c-0.135,0.19-0.271,0.382-0.407,0.572c-0.091-0.115-0.249-0.229-0.252-0.346C259.49,82.523,259.646,82.404,259.732,82.287z"/>
<path fill-rule="evenodd" clip-rule="evenodd" fill="#3AAAC8" d="M331.734,194.96c-0.083-0.11-0.231-0.221-0.231-0.331
	c0-0.109,0.149-0.219,0.233-0.328c0.133,0.179,0.266,0.357,0.397,0.536C332.001,194.878,331.868,194.919,331.734,194.96z"/>
<path fill-rule="evenodd" clip-rule="evenodd" fill="#3AAAC8" d="M488.832,264.396c-0.242,0.023-0.487,0.067-0.726,0.046
	c-0.049-0.005-0.148-0.331-0.098-0.381c0.17-0.168,0.396-0.278,0.602-0.41C488.685,263.898,488.759,264.146,488.832,264.396z"/>
<path fill-rule="evenodd" clip-rule="evenodd" fill="#3AAAC8" d="M355.938,78.992c-0.135-0.044-0.271-0.089-0.405-0.133
	c0.137-0.184,0.273-0.367,0.411-0.551c0.085,0.114,0.236,0.229,0.235,0.343C356.179,78.766,356.025,78.879,355.938,78.992z"/>
<polygon fill-rule="evenodd" clip-rule="evenodd" fill="#3AAAC8" points="274.17,118.183 274.408,117.953 274.492,118.269 "/>
<path fill-rule="evenodd" clip-rule="evenodd" fill="#3AAAC8" d="M495.96,14.02c-0.986-0.671-1.973-1.343-2.959-2.014
	C494.637,11.724,495.44,12.663,495.96,14.02z"/>
</svg>
